<?xml version="1.0" encoding="utf-8"?>
<!-- Generator: Adobe Illustrator 25.0.1, SVG Export Plug-In . SVG Version: 6.00 Build 0)  -->
<svg version="1.1" id="Layer_1" xmlns="http://www.w3.org/2000/svg" xmlns:xlink="http://www.w3.org/1999/xlink" x="0px" y="0px"
	 viewBox="0 0 618.38 692.87" style="enable-background:new 0 0 618.38 692.87;" xml:space="preserve">
<style type="text/css">
	.st0{fill:#FFFFFF;}
	.st1{fill:#03EAEA;}
	.st2{fill:#494949;}
</style>
<g>
	<g>
		<g>
			<g id="_x3C_Radial_Repeat_x3E__60_">
				<g>
					<polygon class="st1" points="294.56,440.82 309.29,420.77 324.02,440.82 309.29,462.91 					"/>
					<rect x="302.27" y="293.53" class="st1" width="14.05" height="83.46"/>
					<path class="st1" d="M321.72,295.14l59.53,84.87l-17.16-0.01l-54.81-78.14l-55,78.15H237.1l59.75-84.89
						C302.91,286.51,315.68,286.52,321.72,295.14z"/>
					<polygon class="st1" points="309,368.43 357.11,420.04 337.91,420.04 309.58,389.65 284.4,419.76 265.86,420.04 					"/>
				</g>
			</g>
			<g id="_x3C_Radial_Repeat_x3E__58_">
				<g>
					<g>
						<polygon class="st1" points="120.56,323.46 145.29,326.2 135.29,348.98 108.8,347.27 						"/>
						
							<rect x="177.61" y="276.42" transform="matrix(0.866 -0.5 0.5 0.866 -112.3365 147.6435)" class="st1" width="83.46" height="14.05"/>
						<path class="st1" d="M260.3,274.15l-43.74,93.99l-8.57-14.87l40.27-86.54l-95.18-8.56l-8.59-14.88l103.39,9.3
							C258.37,253.54,264.75,264.6,260.3,274.15z"/>
						<polygon class="st1" points="190.47,299.78 169.83,367.25 160.23,350.61 172.38,310.88 133.72,304.14 124.2,288.22 						"/>
					</g>
				</g>
			</g>
			<g id="_x3C_Radial_Repeat_x3E__56_">
				<g>
					<g>
						<polygon class="st1" points="135.19,114.1 145.19,136.88 120.46,139.62 108.7,115.81 						"/>
						
							<rect x="212.22" y="137.9" transform="matrix(0.5 -0.866 0.866 0.5 -45.9478 279.6832)" class="st1" width="14.05" height="83.46"/>
						<path class="st1" d="M247.77,210.46l-103.27,9.12l8.59-14.86l95.08-8.4l-40.18-86.71l8.59-14.88l43.65,94.19
							C264.65,198.48,258.26,209.54,247.77,210.46z"/>
						<polygon class="st1" points="190.66,162.8 121.91,178.66 131.51,162.03 172,152.69 158.51,115.83 167.54,99.63 						"/>
					</g>
				</g>
			</g>
			<g id="_x3C_Radial_Repeat_x3E__54_">
				<g>
					<g>
						<polygon class="st1" points="323.82,22.09 309.09,42.14 294.36,22.09 309.09,0 						"/>
						<rect x="302.07" y="85.91" class="st1" width="14.05" height="83.46"/>
						<path class="st1" d="M296.66,167.77l-59.53-84.87l17.16,0.01l54.81,78.14l55-78.15h17.18l-59.75,84.89
							C315.47,176.4,302.71,176.39,296.66,167.77z"/>
						<polygon class="st1" points="309.38,94.47 261.27,42.87 280.48,42.87 308.81,73.26 333.98,43.15 352.53,42.87 						"/>
					</g>
				</g>
			</g>
			<g id="_x3C_Radial_Repeat_x3E__52_">
				<g>
					<g>
						<polygon class="st1" points="497.82,139.44 473.09,136.71 483.09,113.93 509.59,115.64 						"/>
						
							<rect x="357.31" y="172.44" transform="matrix(0.866 -0.5 0.5 0.866 -36.2689 223.566)" class="st1" width="83.46" height="14.05"/>
						<path class="st1" d="M358.08,188.76l43.74-93.99l8.57,14.87l-40.27,86.54l95.18,8.56l8.59,14.88l-103.39-9.3
							C360.01,209.37,353.64,198.3,358.08,188.76z"/>
						<polygon class="st1" points="427.91,163.12 448.55,95.66 458.15,112.29 446,152.02 484.66,158.77 494.18,174.69 						"/>
					</g>
				</g>
			</g>
			<g id="_x3C_Radial_Repeat_x3E__50_">
				<g>
					<g>
						<polygon class="st1" points="483.19,348.81 473.19,326.02 497.92,323.29 509.68,347.09 						"/>
						
							<rect x="392.12" y="241.54" transform="matrix(0.5 -0.866 0.866 0.5 -45.7499 487.3044)" class="st1" width="14.05" height="83.46"/>
						<path class="st1" d="M370.61,252.44l103.27-9.12l-8.59,14.86l-95.08,8.4l40.18,86.71l-8.59,14.88l-43.65-94.19
							C353.73,264.42,360.12,253.37,370.61,252.44z"/>
						<polygon class="st1" points="427.73,300.11 496.47,284.25 486.87,300.88 446.38,310.22 459.87,347.07 450.84,363.28 						"/>
					</g>
				</g>
			</g>
		</g>
		<g>
			<g>
				<circle class="st1" cx="309.19" cy="231.45" r="36.82"/>
			</g>
		</g>
	</g>
	<g>
		<g>
			<path class="st1" d="M0,692.13v-51.62h8.48v51.62H0z M5.82,648.25v-7.74h28.54v7.74H5.82z M5.82,669.49v-7.45h26.4v7.45H5.82z
				 M5.82,692.13v-7.74h28.91v7.74H5.82z"/>
			<path class="st1" d="M115.77,692.13v-51.62h8.48v51.62H115.77z M121.6,648.25v-7.74h27.51v7.74H121.6z M121.6,670.01v-7.74h26.25
				v7.74H121.6z"/>
			<path class="st1" d="M229.77,692.13v-51.62h8.48v51.62H229.77z M235.6,648.25v-7.74h27.51v7.74H235.6z M235.6,670.01v-7.74h26.25
				v7.74H235.6z"/>
			<path class="st1" d="M343.77,692.13v-51.62h8.48v51.62H343.77z M349.6,648.25v-7.74h28.54v7.74H349.6z M349.6,669.49v-7.45H376
				v7.45H349.6z M349.6,692.13v-7.74h28.91v7.74H349.6z"/>
			<path class="st1" d="M481.96,692.87c-3.74,0-7.19-0.68-10.36-2.03c-3.17-1.35-5.94-3.25-8.3-5.68c-2.36-2.43-4.18-5.26-5.46-8.48
				c-1.28-3.22-1.92-6.67-1.92-10.36c0-3.69,0.64-7.14,1.92-10.36c1.28-3.22,3.1-6.03,5.46-8.44c2.36-2.41,5.12-4.3,8.3-5.68
				c3.17-1.38,6.62-2.07,10.36-2.07c4.18,0,7.79,0.69,10.84,2.07c3.05,1.38,5.75,3.24,8.11,5.6l-5.75,5.75
				c-1.52-1.67-3.38-2.97-5.57-3.91c-2.19-0.93-4.73-1.4-7.63-1.4c-2.56,0-4.89,0.44-7,1.33c-2.11,0.89-3.95,2.15-5.49,3.8
				c-1.55,1.65-2.74,3.6-3.58,5.86c-0.84,2.26-1.25,4.74-1.25,7.45c0,2.71,0.42,5.19,1.25,7.45c0.83,2.26,2.03,4.22,3.58,5.86
				c1.55,1.65,3.38,2.91,5.49,3.8c2.11,0.89,4.45,1.33,7,1.33c3.15,0,5.81-0.48,8-1.44c2.19-0.96,4.04-2.27,5.57-3.95l5.75,5.75
				c-2.36,2.41-5.14,4.3-8.33,5.68C489.76,692.18,486.09,692.87,481.96,692.87z"/>
			<path class="st1" d="M576.28,648.25v-7.74h42.11v7.74H576.28z M593.09,692.13v-50.14h8.48v50.14H593.09z"/>
		</g>
		<g>
			<path class="st2" d="M38.58,606.44c-8.72,0-16.12-1.57-22.2-4.72c-6.09-3.15-11.55-7.77-16.38-13.86l12.28-12.28
				c3.04,4.41,6.67,7.85,10.87,10.31c4.2,2.47,9.55,3.7,16.06,3.7c6.09,0,10.94-1.26,14.57-3.78c3.62-2.52,5.43-5.98,5.43-10.39
				c0-3.67-0.94-6.66-2.83-8.98c-1.89-2.31-4.38-4.22-7.48-5.75c-3.1-1.52-6.51-2.89-10.24-4.09c-3.73-1.21-7.46-2.57-11.18-4.09
				c-3.73-1.52-7.14-3.44-10.24-5.75c-3.1-2.31-5.59-5.3-7.48-8.98c-1.89-3.67-2.83-8.35-2.83-14.01c0-6.51,1.6-12.05,4.8-16.61
				c3.2-4.57,7.53-8.06,12.99-10.47c5.46-2.41,11.55-3.62,18.27-3.62c7.24,0,13.72,1.42,19.45,4.25
				c5.72,2.83,10.37,6.46,13.94,10.86l-12.28,12.28c-3.15-3.57-6.43-6.22-9.84-7.95c-3.41-1.73-7.32-2.6-11.73-2.6
				c-5.46,0-9.74,1.1-12.83,3.31c-3.1,2.2-4.65,5.3-4.65,9.29c0,3.36,0.95,6.06,2.83,8.11s4.38,3.78,7.48,5.2
				c3.1,1.42,6.51,2.76,10.24,4.02c3.73,1.26,7.45,2.68,11.18,4.25c3.73,1.57,7.14,3.6,10.24,6.06c3.1,2.47,5.59,5.64,7.48,9.53
				c1.89,3.88,2.83,8.77,2.83,14.64c0,9.87-3.49,17.69-10.47,23.46C59.86,603.56,50.44,606.44,38.58,606.44z"/>
			<path class="st2" d="M145.82,604.87V494.64h12.6l5.51,20.79v89.44H145.82z M222.19,604.87l-65.98-86.14l2.2-24.09l65.98,86.13
				L222.19,604.87z M222.19,604.87l-5.51-19.37v-90.86h18.11v110.23H222.19z"/>
			<path class="st2" d="M359.82,606.44c-7.87,0-15.22-1.47-22.05-4.41c-6.82-2.94-12.81-7.01-17.95-12.2
				c-5.14-5.2-9.16-11.23-12.05-18.11c-2.89-6.88-4.33-14.25-4.33-22.13c0-7.87,1.44-15.22,4.33-22.04
				c2.89-6.82,6.87-12.83,11.97-18.03c5.09-5.2,11.02-9.24,17.79-12.13c6.77-2.89,14.09-4.33,21.97-4.33
				c7.87,0,15.2,1.44,21.97,4.33c6.77,2.89,12.73,6.93,17.87,12.13c5.14,5.2,9.16,11.23,12.05,18.11
				c2.89,6.88,4.33,14.25,4.33,22.13s-1.44,15.25-4.33,22.12c-2.89,6.88-6.88,12.89-11.97,18.03c-5.09,5.14-11.02,9.19-17.79,12.13
				C374.86,604.97,367.58,606.44,359.82,606.44z M359.5,589.12c7.45,0,13.99-1.68,19.61-5.04c5.61-3.36,10.02-8,13.23-13.94
				c3.2-5.93,4.8-12.78,4.8-20.55c0-5.77-0.92-11.05-2.76-15.83c-1.84-4.78-4.44-8.92-7.79-12.44c-3.36-3.52-7.32-6.22-11.89-8.11
				c-4.57-1.89-9.63-2.84-15.2-2.84c-7.35,0-13.83,1.65-19.45,4.96c-5.62,3.31-10.03,7.9-13.23,13.78c-3.2,5.88-4.8,12.7-4.8,20.47
				c0,5.78,0.92,11.1,2.76,15.98c1.84,4.88,4.41,9.06,7.72,12.52c3.31,3.46,7.27,6.17,11.89,8.11
				C349,588.15,354.04,589.12,359.5,589.12z"/>
			<path class="st2" d="M508.15,604.87l-36.22-110.23h17.79l27.24,84.88h-4.72l26.61-84.88h12.6l26.61,84.88h-4.72l27.24-84.88
				h17.79l-36.22,110.23h-12.6l-26.77-84.72h4.72l-26.77,84.72H508.15z"/>
		</g>
	</g>
</g>
</svg>
